<?xml version="1.0" encoding="utf-8"?>
<!-- Generator: Adobe Illustrator 21.1.0, SVG Export Plug-In . SVG Version: 6.00 Build 0)  -->
<svg version="1.1" xmlns="http://www.w3.org/2000/svg" xmlns:xlink="http://www.w3.org/1999/xlink" x="0px" y="0px"
	 viewBox="0 0 480 800" style="enable-background:new 0 0 480 800;" xml:space="preserve">
<style type="text/css">
	.st0{fill:#231F20;}
	.st1{fill:#FFFFFF;}
	.st2{fill:#22A7F0;}
	.st3{fill:#BBBDBF;}
</style>
<g id="Base">
	<rect class="st0" width="480" height="800"/>
</g>
<g id="_x36_1">
	<g>
		<path class="st1" d="M152.4,548.3c-14.2,0-25.9,4.6-35.2,13.7c2.3-13.1,8.3-23.3,18.2-30.6c9.9-7.4,22.6-11.1,38-11.1h1.8v-32.3
			H169c-17.7,0-33.9,4.2-48.5,12.5c-14.6,8.3-25.8,19.8-33.7,34.4c-7.8,14.6-11.7,31-11.7,49.3v16.5c0.2,13.9,3,26.2,8.5,36.9
			c5.5,10.7,13.3,18.9,23.2,24.7c9.9,5.7,21.2,8.5,33.8,8.5c11.6,0,22.2-2.6,31.7-7.9c9.6-5.4,17-12.8,22.3-22.2
			c5.4-9.4,8.1-19.8,8.1-31.1c0-18.2-4.6-33-13.7-44.2C180.1,553.9,167.8,548.3,152.4,548.3z M155.3,630.5
			c-4.2,5.6-9.4,8.4-15.6,8.4c-15.5,0-23.3-11.2-23.3-33.7v-12.3c1.8-3.7,4.5-6.8,8.2-9.3c3.7-2.5,8.2-3.8,13.7-3.8
			c7.1,0,12.7,2.8,17,8.3c4.3,5.5,6.5,12.5,6.5,21.2C161.6,617.8,159.5,624.9,155.3,630.5z"/>
		<polygon class="st1" points="223.1,517.5 223.1,548.7 263.6,536.9 263.6,668.2 304.9,668.2 304.9,490.5 301.1,490.5 		"/>
		<path class="st1" d="M397.7,498c-6.6-6.7-14.4-10-23.6-10c-9.3,0-17.3,3.3-24.2,10c-6.8,6.7-10.1,14.8-10.1,24.3
			c0,9.4,3.3,17.5,10,24c6.8,6.5,14.9,9.8,24.3,9.8c9.3,0,17.2-3.3,23.7-9.8c6.6-6.6,9.9-14.6,9.9-24
			C407.7,512.8,404.4,504.7,397.7,498z M384.8,533.1c-2.8,2.9-6.3,4.4-10.6,4.4c-4.2,0-7.8-1.4-10.9-4.3c-3-2.9-4.5-6.6-4.5-10.9
			c0-4.3,1.5-8,4.4-11c3-3.1,6.7-4.6,11-4.6s7.9,1.5,10.6,4.6c2.8,3.1,4.2,6.8,4.2,11S387.5,530.1,384.8,533.1z"/>
	</g>
</g>
<g id="rain_drop">
	<path class="st2" d="M346.4,309.4c-1.2,5.6-1.9,11.2-1.6,16.9c0,3.3,0.3,7.9,1,13.9c0.5,5.8,0.8,10.1,0.8,12.8
		c-0.2,4.5-1.4,8.7-3.4,12.4c-2.5,4.6-6,8.2-10.4,10.8c-4.5,2.8-9.1,4.1-14.2,4.3c-5.1,0.2-9.9-0.9-14.4-3.4
		c-4.6-2.5-8.2-6-10.8-10.4c-2.6-4.4-4-9-4.1-14.3c-0.2-5.1,1.2-9.9,3.6-14.5c2-3.7,4.8-6.8,8.6-9.6c2.2-1.6,6-3.8,11.3-6.4
		c5.2-2.7,9.3-4.9,12.3-6.6c4.6-3,9-6.4,13.1-10.4c1-1.1,2.3-1.5,3.8-1.5c1.5,0.1,2.7,0.8,3.6,1.9
		C346.3,306.5,346.7,307.9,346.4,309.4z M309.1,367.9c0.6,0.3,1.2,0.5,1.9,0.3c0.7-0.2,1.3-0.6,1.6-1.3c0.3-0.6,0.3-1.3,0.1-2
		c-0.2-0.7-0.6-1.3-1.2-1.6c-3.1-1.7-5.3-4.2-6.3-7.7c-1-3.5-0.6-6.8,1.2-9.9c0.3-0.6,0.3-1.3,0.1-2c-0.2-0.7-0.6-1.3-1.2-1.6
		c-0.7-0.4-1.4-0.4-2.1-0.2c-0.7,0.2-1.1,0.7-1.4,1.3c-1.6,2.9-2.3,6-2.2,9.2c0,3.3,0.9,6.2,2.7,9
		C303.9,364.2,306.3,366.4,309.1,367.9z"/>
</g>
<g id="Cloud_base">
	<path class="st3" d="M158.5,282.8h162.9c36.3,0,66.1-29.7,66.1-66.1v0c0-36.3-29.7-66.1-66.1-66.1H158.5
		c-36.3,0-66.1,29.7-66.1,66.1v0C92.5,253.1,122.2,282.8,158.5,282.8z"/>
</g>
<g id="Cloud_bit_1">
	<circle class="st3" cx="208" cy="134.4" r="75.3"/>
</g>
<g id="Cloud_bit_2">
	<circle class="st3" cx="296.9" cy="140.6" r="51.8"/>
</g>
</svg>
